<svg id="svg" version="1.1" xmlns="http://www.w3.org/2000/svg" xmlns:xlink="http://www.w3.org/1999/xlink" width="400" height="115.5925155925156" viewBox="0, 0, 400,115.5925155925156"><g id="svgg"><path id="path0" d="M102.756 41.633 C 102.704 41.685,102.665 45.247,102.670 49.548 C 102.677 55.281,102.627 57.430,102.484 57.602 C 102.320 57.801,100.138 57.836,88.335 57.831 C 73.584 57.826,73.833 57.815,73.833 58.434 C 73.833 58.678,73.736 58.833,73.583 58.833 C 73.428 58.833,73.333 58.991,73.333 59.250 C 73.333 59.479,73.258 59.667,73.167 59.667 C 73.075 59.667,73.000 59.921,73.000 60.232 C 73.000 60.581,72.904 60.834,72.750 60.894 C 72.593 60.954,72.500 61.209,72.500 61.578 C 72.500 61.902,72.425 62.167,72.333 62.167 C 72.242 62.167,72.167 62.421,72.167 62.732 C 72.167 63.081,72.071 63.334,71.917 63.394 C 71.745 63.459,71.667 63.727,71.667 64.245 C 71.667 64.660,71.592 65.000,71.500 65.000 C 71.407 65.000,71.333 65.448,71.333 66.012 C 71.333 66.689,71.251 67.106,71.083 67.274 C 70.716 67.641,70.711 76.275,71.078 76.760 C 71.225 76.954,71.325 77.463,71.328 78.032 C 71.331 78.554,71.408 79.027,71.500 79.083 C 71.592 79.140,71.667 79.430,71.667 79.728 C 71.667 80.026,71.777 80.415,71.911 80.593 C 72.046 80.771,72.158 81.160,72.161 81.458 C 72.164 81.756,72.242 82.000,72.333 82.000 C 72.425 82.000,72.500 82.220,72.500 82.488 C 72.500 82.757,72.612 83.089,72.750 83.226 C 72.887 83.364,73.000 83.632,73.000 83.821 C 73.000 84.011,73.075 84.167,73.167 84.167 C 73.258 84.167,73.334 84.335,73.336 84.542 C 73.339 85.032,73.583 85.405,73.808 85.266 C 74.181 85.035,102.228 85.156,102.461 85.390 C 102.634 85.563,102.677 87.319,102.670 94.042 C 102.665 98.843,102.725 102.517,102.810 102.569 C 102.892 102.620,109.823 95.768,118.212 87.343 L 133.463 72.024 121.607 60.200 C 104.452 43.093,102.862 41.527,102.756 41.633 M262.582 72.500 C 262.582 89.321,262.601 96.202,262.625 87.792 C 262.649 79.381,262.649 65.619,262.625 57.208 C 262.601 48.798,262.582 55.679,262.582 72.500 M141.581 77.917 C 141.581 91.667,141.601 97.267,141.625 90.362 C 141.649 83.457,141.649 72.207,141.625 65.362 C 141.601 58.517,141.581 64.167,141.581 77.917 " stroke="none" fill="#fbfbfb" fill-rule="evenodd"></path><path id="path1" d="M236.500 13.322 C 236.500 13.411,236.031 13.506,235.458 13.534 C 234.734 13.568,234.429 13.647,234.458 13.792 C 234.486 13.930,234.280 14.000,233.843 14.000 C 233.482 14.000,233.140 14.075,233.083 14.167 C 233.027 14.258,232.722 14.333,232.407 14.333 C 232.008 14.333,231.833 14.410,231.833 14.583 C 231.833 14.758,231.657 14.833,231.250 14.833 C 230.929 14.833,230.667 14.908,230.667 15.000 C 230.667 15.092,230.487 15.167,230.268 15.167 C 230.048 15.167,229.826 15.279,229.773 15.417 C 229.720 15.554,229.525 15.667,229.339 15.667 C 229.152 15.667,229.000 15.742,229.000 15.833 C 229.000 15.925,228.884 16.000,228.743 16.000 C 228.504 16.000,228.341 16.103,227.769 16.612 C 227.649 16.719,227.407 16.832,227.233 16.862 C 227.059 16.892,226.780 17.085,226.613 17.292 C 226.446 17.498,226.160 17.667,225.978 17.667 C 225.796 17.667,225.694 17.742,225.751 17.835 C 225.808 17.927,225.718 18.054,225.552 18.117 C 225.168 18.262,224.833 18.591,224.833 18.821 C 224.833 18.920,224.774 18.981,224.701 18.958 C 224.530 18.905,222.434 21.042,222.364 21.341 C 222.334 21.466,222.128 21.751,221.905 21.973 C 221.682 22.196,221.500 22.519,221.500 22.689 C 221.500 22.860,221.387 23.000,221.250 23.000 C 221.112 23.000,221.000 23.113,221.000 23.250 C 221.000 23.387,220.925 23.500,220.833 23.500 C 220.742 23.500,220.667 23.688,220.667 23.917 C 220.667 24.176,220.572 24.333,220.417 24.333 C 220.261 24.333,220.167 24.491,220.167 24.750 C 220.167 24.979,220.092 25.167,220.000 25.167 C 219.908 25.167,219.833 25.354,219.833 25.583 C 219.833 25.813,219.737 26.000,219.619 26.000 C 219.501 26.000,219.392 26.162,219.377 26.360 C 219.362 26.558,219.290 26.764,219.216 26.818 C 219.142 26.872,219.056 27.142,219.025 27.417 C 218.993 27.692,218.862 27.977,218.734 28.050 C 218.604 28.124,218.500 28.439,218.500 28.758 C 218.500 29.075,218.425 29.333,218.333 29.333 C 218.242 29.333,218.167 29.708,218.167 30.167 C 218.167 30.796,218.106 31.000,217.917 31.000 C 217.728 31.000,217.667 31.204,217.667 31.833 C 217.667 32.292,217.592 32.667,217.500 32.667 C 217.402 32.667,217.333 33.244,217.333 34.066 C 217.333 35.155,217.278 35.486,217.083 35.560 C 216.874 35.641,216.833 36.153,216.833 38.745 L 216.833 41.833 212.917 41.833 L 209.000 41.833 209.000 49.083 L 209.000 56.333 212.917 56.333 L 216.833 56.333 216.833 79.750 L 216.833 103.167 226.583 103.167 L 236.333 103.167 236.333 79.752 L 236.333 56.337 242.542 56.294 L 248.750 56.250 248.793 49.042 L 248.837 41.833 242.585 41.833 L 236.333 41.833 236.333 39.518 C 236.333 37.613,236.378 37.185,236.583 37.106 C 236.767 37.036,236.833 36.745,236.833 36.005 C 236.833 35.446,236.907 35.000,237.000 35.000 C 237.092 35.000,237.167 34.735,237.167 34.411 C 237.167 34.042,237.260 33.787,237.417 33.727 C 237.554 33.674,237.667 33.493,237.667 33.325 C 237.667 33.157,237.742 32.973,237.833 32.917 C 237.925 32.860,238.000 32.668,238.000 32.490 C 238.000 32.312,238.112 32.167,238.250 32.167 C 238.387 32.167,238.500 32.054,238.500 31.917 C 238.500 31.779,238.579 31.667,238.677 31.667 C 238.774 31.667,238.811 31.598,238.759 31.514 C 238.636 31.315,239.648 30.302,239.847 30.425 C 239.931 30.477,240.000 30.440,240.000 30.343 C 240.000 30.246,240.112 30.167,240.250 30.167 C 240.387 30.167,240.500 30.054,240.500 29.917 C 240.500 29.761,240.657 29.667,240.917 29.667 C 241.146 29.667,241.333 29.592,241.333 29.500 C 241.333 29.408,241.521 29.333,241.750 29.333 C 242.009 29.333,242.167 29.239,242.167 29.083 C 242.167 28.883,242.417 28.833,243.417 28.833 C 244.139 28.833,244.667 28.763,244.667 28.667 C 244.667 28.575,244.779 28.500,244.917 28.500 C 245.054 28.500,245.167 28.575,245.167 28.667 C 245.167 28.768,245.883 28.833,246.982 28.833 C 248.442 28.833,248.816 28.882,248.894 29.083 C 248.958 29.252,249.223 29.333,249.711 29.333 C 250.108 29.333,250.518 29.418,250.622 29.522 C 251.087 29.987,251.333 29.543,251.333 28.243 C 251.333 27.339,251.405 26.905,251.583 26.726 C 251.791 26.519,251.833 25.829,251.833 22.655 C 251.833 20.218,251.894 18.833,252.000 18.833 C 252.103 18.833,252.167 17.917,252.167 16.417 L 252.167 14.000 251.184 14.000 C 250.465 14.000,250.177 13.933,250.106 13.750 C 250.036 13.566,249.745 13.500,249.005 13.500 C 248.452 13.500,248.000 13.429,248.000 13.341 C 248.000 13.245,245.766 13.178,242.250 13.171 C 238.616 13.163,236.500 13.219,236.500 13.322 M2.333 55.500 C 2.333 91.981,2.305 96.667,2.083 96.667 C 1.870 96.667,1.833 97.139,1.833 99.917 L 1.833 103.167 10.095 103.167 C 19.872 103.167,18.833 103.481,18.833 100.520 C 18.833 98.800,18.883 98.322,19.074 98.215 C 19.235 98.125,19.332 97.730,19.366 97.025 L 19.417 95.970 19.792 96.296 C 19.998 96.476,20.167 96.707,20.167 96.811 C 20.167 96.915,20.279 97.000,20.417 97.000 C 20.554 97.000,20.667 97.117,20.667 97.260 C 20.667 97.574,23.233 100.152,23.877 100.486 C 24.128 100.617,24.333 100.823,24.333 100.945 C 24.333 101.070,24.514 101.167,24.750 101.167 C 24.979 101.167,25.167 101.242,25.167 101.333 C 25.167 101.425,25.279 101.500,25.417 101.500 C 25.554 101.500,25.667 101.612,25.667 101.750 C 25.667 101.888,25.812 102.000,25.990 102.000 C 26.168 102.000,26.360 102.075,26.417 102.167 C 26.473 102.258,26.668 102.333,26.848 102.333 C 27.029 102.333,27.220 102.446,27.273 102.583 C 27.326 102.721,27.548 102.833,27.768 102.833 C 27.987 102.833,28.167 102.908,28.167 103.000 C 28.167 103.092,28.429 103.167,28.750 103.167 C 29.157 103.167,29.333 103.242,29.333 103.417 C 29.333 103.597,29.519 103.667,30.000 103.667 C 30.367 103.667,30.667 103.742,30.667 103.833 C 30.667 103.926,31.111 104.000,31.667 104.000 C 32.444 104.000,32.667 104.056,32.667 104.250 C 32.667 104.618,42.412 104.628,42.618 104.260 C 42.706 104.103,43.082 104.007,43.709 103.982 C 44.236 103.960,44.667 103.881,44.667 103.805 C 44.667 103.729,44.886 103.667,45.155 103.667 C 45.423 103.667,45.755 103.554,45.893 103.417 C 46.030 103.279,46.373 103.167,46.655 103.167 C 46.936 103.167,47.167 103.092,47.167 103.000 C 47.167 102.908,47.384 102.833,47.649 102.833 C 47.924 102.833,48.172 102.726,48.227 102.583 C 48.280 102.446,48.513 102.333,48.745 102.333 C 48.977 102.333,49.167 102.258,49.167 102.167 C 49.167 102.075,49.346 102.000,49.566 102.000 C 49.785 102.000,50.008 101.888,50.060 101.750 C 50.113 101.613,50.309 101.500,50.495 101.500 C 50.681 101.500,50.833 101.425,50.833 101.333 C 50.833 101.242,50.946 101.167,51.083 101.167 C 51.221 101.167,51.333 101.054,51.333 100.917 C 51.333 100.763,51.489 100.667,51.736 100.667 C 51.958 100.667,52.165 100.588,52.197 100.491 C 52.230 100.394,52.405 100.291,52.586 100.260 C 52.768 100.230,52.898 100.122,52.875 100.020 C 52.852 99.917,52.946 99.833,53.083 99.833 C 53.221 99.833,53.333 99.758,53.333 99.667 C 53.333 99.575,53.419 99.500,53.523 99.500 C 53.628 99.500,53.797 99.392,53.898 99.259 C 54.000 99.127,54.182 98.995,54.303 98.967 C 54.596 98.900,55.833 97.713,55.833 97.500 C 55.833 97.408,55.914 97.333,56.013 97.333 C 56.227 97.333,58.258 95.271,58.394 94.915 C 58.447 94.778,58.567 94.667,58.661 94.667 C 58.756 94.667,58.833 94.512,58.833 94.323 C 58.833 94.135,58.908 94.027,59.000 94.083 C 59.092 94.140,59.167 94.069,59.167 93.927 C 59.167 93.784,59.279 93.667,59.417 93.667 C 59.554 93.667,59.667 93.554,59.667 93.417 C 59.667 93.279,59.742 93.167,59.833 93.167 C 59.925 93.167,60.000 93.025,60.000 92.851 C 60.000 92.678,60.112 92.492,60.250 92.440 C 60.387 92.387,60.500 92.191,60.500 92.005 C 60.500 91.819,60.575 91.667,60.667 91.667 C 60.758 91.667,60.833 91.554,60.833 91.417 C 60.833 91.279,60.946 91.167,61.083 91.167 C 61.239 91.167,61.333 91.009,61.333 90.750 C 61.333 90.521,61.408 90.333,61.500 90.333 C 61.592 90.333,61.667 90.146,61.667 89.917 C 61.667 89.657,61.761 89.500,61.917 89.500 C 62.072 89.500,62.167 89.343,62.167 89.083 C 62.167 88.854,62.242 88.667,62.333 88.667 C 62.425 88.667,62.500 88.479,62.500 88.250 C 62.500 87.991,62.594 87.833,62.750 87.833 C 62.925 87.833,63.000 87.657,63.000 87.250 C 63.000 86.929,63.075 86.667,63.167 86.667 C 63.258 86.667,63.333 86.488,63.333 86.270 C 63.333 86.052,63.446 85.781,63.583 85.667 C 63.721 85.553,63.833 85.243,63.833 84.980 C 63.833 84.716,63.908 84.500,64.000 84.500 C 64.092 84.500,64.158 84.444,64.147 84.375 C 64.044 83.722,64.199 82.833,64.417 82.833 C 64.606 82.833,64.667 82.630,64.667 82.000 C 64.667 81.542,64.742 81.167,64.833 81.167 C 64.930 81.167,65.000 80.639,65.000 79.917 C 65.000 78.917,65.050 78.667,65.250 78.667 C 65.458 78.667,65.500 78.341,65.500 76.740 C 65.500 75.498,65.559 74.850,65.667 74.917 C 65.776 74.984,65.833 73.755,65.833 71.353 C 65.833 69.088,65.770 67.647,65.667 67.583 C 65.573 67.525,65.500 66.719,65.500 65.735 C 65.500 64.337,65.450 63.970,65.250 63.894 C 65.064 63.822,65.000 63.526,65.000 62.732 C 65.000 62.133,64.927 61.667,64.833 61.667 C 64.742 61.667,64.667 61.372,64.667 61.012 C 64.667 60.652,64.554 60.245,64.417 60.107 C 64.278 59.969,64.167 59.561,64.167 59.192 C 64.167 58.827,64.094 58.503,64.005 58.472 C 63.917 58.442,63.825 58.164,63.802 57.856 C 63.778 57.547,63.664 57.258,63.546 57.213 C 63.429 57.168,63.333 56.952,63.333 56.732 C 63.333 56.513,63.258 56.333,63.167 56.333 C 63.075 56.333,63.000 56.106,63.000 55.828 C 63.000 55.533,62.896 55.283,62.750 55.227 C 62.612 55.174,62.500 54.956,62.500 54.742 C 62.500 54.528,62.425 54.307,62.333 54.250 C 62.242 54.193,62.167 54.009,62.167 53.841 C 62.167 53.673,62.054 53.492,61.917 53.440 C 61.779 53.387,61.667 53.191,61.667 53.005 C 61.667 52.819,61.592 52.667,61.500 52.667 C 61.408 52.667,61.333 52.554,61.333 52.417 C 61.333 52.279,61.221 52.167,61.083 52.167 C 60.939 52.167,60.833 52.016,60.833 51.811 C 60.833 51.615,60.646 51.281,60.417 51.069 C 60.188 50.856,59.998 50.585,59.995 50.466 C 59.987 50.168,59.587 49.667,59.357 49.667 C 59.186 49.667,59.101 49.323,59.208 49.068 C 59.231 49.014,59.044 48.862,58.792 48.729 C 58.540 48.597,58.333 48.423,58.333 48.341 C 58.333 48.168,57.241 47.066,56.011 46.000 C 55.535 45.587,55.000 45.119,54.823 44.958 C 54.645 44.798,54.425 44.667,54.333 44.667 C 54.242 44.667,54.167 44.592,54.167 44.500 C 54.167 44.408,54.051 44.333,53.909 44.333 C 53.767 44.333,53.477 44.146,53.265 43.917 C 53.052 43.688,52.718 43.500,52.523 43.500 C 52.317 43.500,52.167 43.394,52.167 43.250 C 52.167 43.094,52.009 43.000,51.750 43.000 C 51.521 43.000,51.333 42.925,51.333 42.833 C 51.333 42.742,51.146 42.667,50.917 42.667 C 50.657 42.667,50.500 42.572,50.500 42.417 C 50.500 42.261,50.343 42.167,50.083 42.167 C 49.854 42.167,49.667 42.108,49.667 42.035 C 49.667 41.963,49.423 41.887,49.125 41.865 C 48.827 41.844,48.500 41.715,48.398 41.580 C 48.297 41.444,47.978 41.333,47.690 41.333 C 47.402 41.333,47.167 41.271,47.167 41.195 C 47.167 41.119,46.736 41.040,46.209 41.018 C 45.582 40.993,45.206 40.897,45.118 40.740 C 44.912 40.372,35.167 40.382,35.167 40.750 C 35.167 40.944,34.946 41.000,34.177 41.000 C 33.632 41.000,33.140 41.075,33.083 41.167 C 33.027 41.258,32.722 41.333,32.407 41.333 C 32.008 41.333,31.833 41.410,31.833 41.583 C 31.833 41.755,31.661 41.833,31.283 41.833 C 30.981 41.833,30.659 41.908,30.568 41.999 C 30.477 42.090,30.190 42.182,29.931 42.204 C 29.672 42.225,29.424 42.338,29.379 42.455 C 29.334 42.571,29.150 42.667,28.970 42.667 C 28.790 42.667,28.530 42.780,28.391 42.918 C 28.253 43.057,28.070 43.127,27.985 43.074 C 27.900 43.022,27.786 43.096,27.731 43.239 C 27.676 43.383,27.527 43.500,27.399 43.500 C 27.271 43.500,27.167 43.575,27.167 43.667 C 27.167 43.758,27.072 43.833,26.957 43.833 C 26.841 43.833,26.536 44.028,26.280 44.266 C 26.023 44.504,25.708 44.715,25.579 44.733 C 25.451 44.752,25.203 44.932,25.028 45.134 C 24.854 45.335,24.666 45.500,24.612 45.500 C 24.465 45.500,23.167 46.878,23.167 47.034 C 23.167 47.107,23.054 47.167,22.917 47.167 C 22.779 47.167,22.667 47.252,22.667 47.355 C 22.667 47.459,22.498 47.691,22.292 47.869 L 21.917 48.195 21.874 31.264 L 21.832 14.333 12.083 14.333 L 2.333 14.333 2.333 55.500 M269.708 15.612 C 269.227 15.651,268.833 15.755,268.833 15.842 C 268.833 15.929,268.571 16.000,268.250 16.000 C 267.929 16.000,267.667 16.074,267.667 16.163 C 267.667 16.253,267.479 16.374,267.250 16.432 C 267.021 16.489,266.833 16.603,266.833 16.685 C 266.833 16.766,266.641 16.833,266.407 16.833 C 266.165 16.833,266.025 16.905,266.083 17.000 C 266.140 17.092,266.104 17.167,266.004 17.167 C 265.720 17.167,263.555 19.371,263.426 19.792 C 263.363 19.998,263.241 20.167,263.155 20.167 C 263.070 20.167,263.000 20.354,263.000 20.583 C 263.000 20.813,262.925 21.000,262.833 21.000 C 262.742 21.000,262.667 21.145,262.667 21.321 C 262.667 21.498,262.560 21.749,262.431 21.879 C 262.076 22.234,262.065 28.113,262.418 28.574 C 262.555 28.751,262.667 29.070,262.667 29.282 C 262.667 29.494,262.742 29.667,262.833 29.667 C 262.925 29.667,263.000 29.820,263.000 30.008 C 263.000 30.196,263.188 30.523,263.417 30.735 C 263.646 30.948,263.833 31.205,263.833 31.307 C 263.833 31.586,265.549 33.274,265.968 33.407 C 266.169 33.470,266.333 33.592,266.333 33.678 C 266.333 33.763,266.513 33.833,266.732 33.833 C 266.952 33.833,267.176 33.951,267.231 34.094 C 267.286 34.237,267.400 34.312,267.485 34.259 C 267.570 34.207,267.753 34.277,267.891 34.415 C 268.040 34.564,268.446 34.667,268.887 34.667 C 269.372 34.667,269.662 34.748,269.721 34.901 C 269.791 35.084,270.286 35.139,271.980 35.156 C 274.205 35.178,275.068 35.078,274.906 34.816 C 274.855 34.734,275.189 34.667,275.647 34.667 C 276.105 34.667,276.527 34.592,276.583 34.500 C 276.640 34.408,276.834 34.333,277.015 34.333 C 277.196 34.333,277.387 34.221,277.440 34.083 C 277.492 33.946,277.715 33.833,277.934 33.833 C 278.154 33.833,278.333 33.766,278.333 33.685 C 278.333 33.603,278.524 33.488,278.757 33.430 C 278.990 33.371,279.135 33.251,279.080 33.162 C 279.025 33.073,279.092 33.000,279.228 33.000 C 279.364 33.000,279.623 32.813,279.804 32.583 C 279.984 32.354,280.208 32.167,280.302 32.167 C 280.395 32.167,280.569 31.947,280.688 31.679 C 280.807 31.410,280.961 31.226,281.030 31.269 C 281.100 31.312,281.205 31.156,281.263 30.923 C 281.322 30.691,281.436 30.500,281.518 30.500 C 281.600 30.500,281.667 30.313,281.667 30.083 C 281.667 29.824,281.761 29.667,281.917 29.667 C 282.072 29.667,282.167 29.509,282.167 29.250 C 282.167 29.021,282.242 28.833,282.333 28.833 C 282.425 28.833,282.500 28.429,282.500 27.934 C 282.500 27.289,282.571 27.009,282.750 26.940 C 282.948 26.864,283.000 26.513,283.000 25.250 C 283.000 23.987,282.948 23.636,282.750 23.560 C 282.575 23.493,282.500 23.220,282.500 22.649 C 282.500 22.200,282.425 21.833,282.333 21.833 C 282.242 21.833,282.167 21.651,282.167 21.429 C 282.167 21.206,282.054 20.911,281.917 20.774 C 281.779 20.636,281.667 20.368,281.667 20.179 C 281.667 19.989,281.592 19.833,281.500 19.833 C 281.408 19.833,281.333 19.721,281.333 19.583 C 281.333 19.446,281.237 19.333,281.119 19.333 C 281.002 19.333,280.764 19.095,280.593 18.804 C 280.141 18.040,279.792 17.667,279.529 17.667 C 279.402 17.667,279.150 17.479,278.970 17.250 C 278.790 17.021,278.541 16.833,278.418 16.833 C 278.130 16.833,277.169 16.289,277.168 16.125 C 277.167 16.056,276.873 16.000,276.514 16.000 C 276.155 16.000,275.833 15.916,275.799 15.814 C 275.734 15.618,271.376 15.473,269.708 15.612 M177.000 40.333 C 177.000 40.435,176.250 40.500,175.083 40.500 C 173.491 40.500,173.167 40.542,173.167 40.750 C 173.167 40.942,172.955 41.000,172.260 41.000 C 171.761 41.000,171.307 41.075,171.250 41.167 C 171.193 41.258,170.897 41.333,170.591 41.333 C 170.251 41.333,169.998 41.430,169.940 41.583 C 169.879 41.741,169.624 41.833,169.245 41.833 C 168.889 41.833,168.689 41.901,168.750 42.000 C 168.810 42.097,168.641 42.167,168.343 42.167 C 168.001 42.167,167.833 42.249,167.833 42.417 C 167.833 42.572,167.676 42.667,167.417 42.667 C 167.188 42.667,167.000 42.742,167.000 42.833 C 167.000 42.925,166.813 43.000,166.583 43.000 C 166.324 43.000,166.167 43.094,166.167 43.250 C 166.167 43.407,166.008 43.500,165.740 43.500 C 165.498 43.500,165.358 43.572,165.417 43.667 C 165.473 43.758,165.365 43.833,165.177 43.833 C 164.983 43.833,164.833 43.942,164.833 44.083 C 164.833 44.221,164.702 44.336,164.542 44.339 C 164.181 44.345,163.667 44.721,163.667 44.977 C 163.667 45.081,163.588 45.167,163.492 45.167 C 163.397 45.167,163.131 45.354,162.902 45.583 C 162.672 45.813,162.371 46.000,162.233 46.000 C 162.094 46.000,162.027 46.075,162.083 46.167 C 162.140 46.258,162.107 46.333,162.010 46.333 C 161.770 46.333,161.170 46.948,161.292 47.069 C 161.345 47.123,161.269 47.167,161.122 47.167 C 160.976 47.167,160.804 47.331,160.740 47.531 C 160.677 47.732,160.371 48.134,160.062 48.426 C 159.753 48.717,159.500 49.009,159.500 49.073 C 159.500 49.138,159.387 49.303,159.250 49.440 C 159.028 49.663,159.000 49.514,159.000 48.105 C 159.000 47.228,158.926 46.474,158.833 46.417 C 158.738 46.358,158.667 45.507,158.667 44.432 C 158.667 41.543,159.678 41.833,149.602 41.833 L 141.161 41.833 141.205 45.708 C 141.234 48.175,141.311 49.573,141.417 49.555 C 141.519 49.538,141.584 50.185,141.585 51.222 C 141.586 52.154,141.604 64.223,141.627 78.042 L 141.667 103.167 151.417 103.167 L 161.167 103.167 161.167 85.343 C 161.167 73.641,161.224 67.484,161.333 67.417 C 161.425 67.360,161.500 66.615,161.500 65.758 C 161.500 64.529,161.552 64.182,161.750 64.106 C 161.895 64.051,162.000 63.802,162.000 63.515 C 162.000 63.243,162.075 62.973,162.167 62.917 C 162.258 62.860,162.333 62.676,162.333 62.508 C 162.333 62.340,162.446 62.159,162.583 62.106 C 162.721 62.054,162.833 61.858,162.833 61.672 C 162.833 61.486,162.908 61.333,163.000 61.333 C 163.092 61.333,163.167 61.255,163.167 61.159 C 163.167 61.063,163.354 60.810,163.583 60.598 C 163.813 60.386,164.000 60.129,164.000 60.028 C 164.000 59.809,164.927 58.833,165.135 58.833 C 165.216 58.833,165.499 58.645,165.766 58.416 C 166.032 58.186,166.381 57.956,166.542 57.904 C 166.702 57.853,166.833 57.741,166.833 57.655 C 166.833 57.570,166.940 57.500,167.069 57.500 C 167.199 57.500,167.331 57.427,167.361 57.339 C 167.392 57.250,167.658 57.159,167.954 57.137 C 168.249 57.115,168.528 57.000,168.574 56.882 C 168.628 56.739,168.995 56.667,169.661 56.667 C 170.220 56.667,170.667 56.593,170.667 56.500 C 170.667 56.408,170.967 56.333,171.333 56.333 C 171.700 56.333,172.000 56.408,172.000 56.500 C 172.000 56.593,172.446 56.667,173.005 56.667 C 173.745 56.667,174.036 56.733,174.106 56.917 C 174.162 57.060,174.410 57.167,174.692 57.167 C 174.983 57.167,175.363 57.335,175.631 57.583 C 175.878 57.813,176.174 58.000,176.290 58.000 C 176.405 58.000,176.500 58.075,176.500 58.167 C 176.500 58.258,176.612 58.333,176.750 58.333 C 176.887 58.333,177.000 58.414,177.000 58.512 C 177.000 58.743,177.424 59.167,177.655 59.167 C 177.753 59.167,177.833 59.279,177.833 59.417 C 177.833 59.554,177.908 59.667,178.000 59.667 C 178.092 59.667,178.167 59.819,178.167 60.005 C 178.167 60.191,178.279 60.387,178.417 60.440 C 178.554 60.492,178.667 60.678,178.667 60.851 C 178.667 61.025,178.742 61.167,178.833 61.167 C 178.925 61.167,179.000 61.313,179.000 61.492 C 179.000 61.670,179.109 61.878,179.242 61.952 C 179.375 62.027,179.503 62.368,179.526 62.711 C 179.549 63.053,179.628 63.333,179.701 63.333 C 179.774 63.333,179.833 63.663,179.833 64.066 C 179.833 64.563,179.914 64.828,180.083 64.894 C 180.286 64.971,180.333 65.365,180.333 66.985 C 180.333 68.135,180.404 69.024,180.500 69.083 C 180.609 69.151,180.667 75.030,180.667 86.177 L 180.667 103.167 190.417 103.167 L 200.167 103.167 200.167 82.667 C 200.167 70.674,200.105 62.167,200.017 62.167 C 199.935 62.167,199.841 61.517,199.808 60.722 C 199.769 59.761,199.679 59.254,199.541 59.208 C 199.406 59.163,199.333 58.792,199.333 58.153 C 199.333 57.606,199.259 57.167,199.167 57.167 C 199.075 57.167,199.000 56.910,199.000 56.597 C 199.000 55.901,198.849 55.470,198.649 55.594 C 198.567 55.645,198.500 55.386,198.500 55.020 C 198.500 54.653,198.425 54.307,198.333 54.250 C 198.242 54.193,198.167 53.969,198.167 53.752 C 198.167 53.535,198.054 53.245,197.917 53.107 C 197.779 52.970,197.667 52.734,197.667 52.583 C 197.667 52.433,197.553 52.196,197.415 52.058 C 197.277 51.920,197.201 51.745,197.248 51.671 C 197.294 51.596,197.219 51.492,197.082 51.439 C 196.945 51.387,196.833 51.154,196.833 50.922 C 196.833 50.690,196.758 50.500,196.667 50.500 C 196.575 50.500,196.500 50.399,196.500 50.276 C 196.500 50.153,196.313 49.834,196.084 49.568 C 195.854 49.301,195.667 48.987,195.667 48.870 C 195.667 48.752,195.554 48.613,195.417 48.560 C 195.279 48.508,195.167 48.387,195.167 48.293 C 195.167 48.199,194.981 47.949,194.754 47.739 C 194.527 47.529,194.321 47.264,194.296 47.150 C 194.231 46.857,193.703 46.333,193.472 46.333 C 193.365 46.333,193.322 46.290,193.375 46.236 C 193.496 46.115,192.897 45.500,192.657 45.500 C 192.560 45.500,192.527 45.425,192.583 45.333 C 192.640 45.242,192.542 45.167,192.367 45.167 C 192.191 45.167,191.906 44.979,191.734 44.750 C 191.562 44.521,191.326 44.333,191.210 44.333 C 191.095 44.333,191.000 44.221,191.000 44.083 C 191.000 43.935,190.847 43.833,190.623 43.833 C 190.415 43.833,190.105 43.646,189.933 43.417 C 189.761 43.188,189.480 43.000,189.310 43.000 C 189.139 43.000,189.000 42.925,189.000 42.833 C 189.000 42.742,188.813 42.667,188.583 42.667 C 188.324 42.667,188.167 42.572,188.167 42.417 C 188.167 42.261,188.009 42.167,187.750 42.167 C 187.521 42.167,187.333 42.092,187.333 42.000 C 187.333 41.908,187.033 41.833,186.667 41.833 C 186.185 41.833,186.000 41.764,186.000 41.583 C 186.000 41.409,185.824 41.333,185.417 41.333 C 185.096 41.333,184.833 41.258,184.833 41.167 C 184.833 41.075,184.466 41.000,184.018 41.000 C 183.447 41.000,183.174 40.925,183.106 40.750 C 183.028 40.547,182.634 40.500,181.005 40.500 C 179.780 40.500,179.000 40.435,179.000 40.333 C 179.000 40.241,178.556 40.167,178.000 40.167 C 177.444 40.167,177.000 40.241,177.000 40.333 M326.667 40.758 C 326.667 40.969,325.735 41.124,325.113 41.016 C 325.037 41.002,325.023 41.069,325.081 41.163 C 325.144 41.265,324.982 41.333,324.677 41.333 C 324.334 41.333,324.167 41.416,324.167 41.583 C 324.167 41.758,323.991 41.833,323.583 41.833 C 323.262 41.833,323.000 41.908,323.000 42.000 C 323.000 42.092,322.887 42.167,322.750 42.167 C 322.612 42.167,322.500 42.279,322.500 42.417 C 322.500 42.572,322.343 42.667,322.083 42.667 C 321.854 42.667,321.667 42.742,321.667 42.833 C 321.667 42.925,321.479 43.000,321.250 43.000 C 320.991 43.000,320.833 43.094,320.833 43.250 C 320.833 43.387,320.753 43.500,320.655 43.500 C 320.424 43.500,320.000 43.924,320.000 44.155 C 320.000 44.253,319.842 44.333,319.650 44.333 C 319.287 44.333,317.000 46.516,317.000 46.862 C 317.000 46.963,316.809 47.222,316.575 47.439 C 316.341 47.656,316.210 47.836,316.283 47.838 C 316.357 47.841,316.285 47.920,316.125 48.013 C 315.965 48.107,315.833 48.321,315.833 48.490 C 315.833 48.659,315.721 48.841,315.583 48.894 C 315.446 48.946,315.333 49.142,315.333 49.328 C 315.333 49.514,315.258 49.667,315.167 49.667 C 315.075 49.667,315.000 49.747,315.000 49.845 C 315.000 49.943,314.887 50.136,314.750 50.274 C 314.612 50.411,314.500 50.706,314.500 50.929 C 314.500 51.151,314.425 51.333,314.333 51.333 C 314.242 51.333,314.167 51.513,314.167 51.732 C 314.167 51.952,314.054 52.174,313.917 52.227 C 313.701 52.310,313.667 51.949,313.667 49.578 C 313.667 47.859,313.604 46.833,313.500 46.833 C 313.396 46.833,313.333 45.889,313.333 44.333 L 313.333 41.833 304.833 41.833 L 296.333 41.833 296.333 44.667 C 296.333 46.444,296.395 47.500,296.500 47.500 C 296.610 47.500,296.667 56.889,296.667 75.333 L 296.667 103.167 306.417 103.167 L 316.167 103.167 316.167 87.601 C 316.167 73.919,316.197 72.024,316.417 71.940 C 316.617 71.863,316.667 71.496,316.667 70.098 C 316.667 69.115,316.739 68.308,316.833 68.250 C 316.925 68.193,317.000 67.822,317.000 67.425 C 317.000 66.936,317.081 66.671,317.250 66.606 C 317.387 66.554,317.500 66.363,317.500 66.182 C 317.500 66.001,317.575 65.807,317.667 65.750 C 317.758 65.693,317.833 65.501,317.833 65.323 C 317.833 65.146,317.900 65.000,317.982 65.000 C 318.064 65.000,318.178 64.813,318.235 64.583 C 318.293 64.354,318.413 64.167,318.503 64.167 C 318.593 64.167,318.667 64.086,318.667 63.988 C 318.667 63.890,318.760 63.705,318.875 63.577 C 319.370 63.026,319.500 62.837,319.500 62.674 C 319.500 62.578,319.580 62.500,319.679 62.500 C 319.909 62.500,320.333 62.076,320.333 61.845 C 320.333 61.747,320.477 61.667,320.652 61.667 C 320.828 61.667,321.242 61.404,321.572 61.083 C 321.902 60.762,322.321 60.500,322.503 60.500 C 322.686 60.500,322.833 60.388,322.833 60.250 C 322.833 60.034,323.356 59.898,323.875 59.980 C 323.944 59.991,324.000 59.925,324.000 59.833 C 324.000 59.742,324.220 59.667,324.488 59.667 C 324.757 59.667,325.089 59.554,325.226 59.417 C 325.375 59.267,325.783 59.167,326.238 59.167 C 326.657 59.167,327.000 59.092,327.000 59.000 C 327.000 58.770,331.877 58.777,332.107 59.007 C 332.208 59.108,332.837 59.161,333.599 59.132 L 334.917 59.083 334.917 49.833 L 334.917 40.583 330.792 40.550 C 327.282 40.521,326.667 40.552,326.667 40.758 M364.940 40.750 C 364.869 40.933,364.580 41.000,363.852 41.000 C 363.307 41.000,362.836 41.071,362.806 41.158 C 362.775 41.244,362.394 41.333,361.958 41.356 C 361.436 41.382,361.167 41.470,361.167 41.614 C 361.167 41.758,360.942 41.833,360.514 41.833 C 360.155 41.833,359.836 41.906,359.806 41.995 C 359.775 42.083,359.506 42.174,359.208 42.197 C 358.899 42.220,358.667 42.330,358.667 42.452 C 358.667 42.570,358.479 42.667,358.250 42.667 C 358.021 42.667,357.833 42.742,357.833 42.833 C 357.833 42.925,357.646 43.000,357.417 43.000 C 357.157 43.000,357.000 43.094,357.000 43.250 C 357.000 43.406,356.843 43.500,356.583 43.500 C 356.354 43.500,356.167 43.575,356.167 43.667 C 356.167 43.758,355.979 43.833,355.750 43.833 C 355.491 43.833,355.333 43.928,355.333 44.083 C 355.333 44.239,355.176 44.333,354.917 44.333 C 354.688 44.333,354.500 44.408,354.500 44.500 C 354.500 44.592,354.348 44.667,354.161 44.667 C 353.975 44.667,353.780 44.779,353.727 44.917 C 353.674 45.054,353.522 45.167,353.389 45.167 C 353.256 45.167,353.193 45.242,353.250 45.333 C 353.307 45.425,353.205 45.500,353.024 45.500 C 352.843 45.500,352.373 45.800,351.980 46.167 C 351.586 46.533,351.201 46.833,351.124 46.833 C 351.047 46.833,350.713 47.096,350.383 47.417 C 350.052 47.737,349.719 48.000,349.641 48.000 C 349.563 48.000,349.500 48.112,349.500 48.250 C 349.500 48.387,349.431 48.500,349.347 48.500 C 349.205 48.500,348.910 48.793,347.770 50.063 C 347.533 50.326,347.380 50.608,347.430 50.688 C 347.479 50.768,347.403 50.833,347.260 50.833 C 347.117 50.833,347.000 50.912,347.000 51.008 C 347.000 51.104,346.813 51.356,346.583 51.569 C 346.354 51.781,346.167 52.044,346.167 52.152 C 346.167 52.261,345.979 52.523,345.750 52.735 C 345.521 52.948,345.333 53.248,345.333 53.402 C 345.333 53.556,345.146 53.856,344.917 54.069 C 344.688 54.281,344.500 54.619,344.500 54.821 C 344.500 55.022,344.433 55.145,344.351 55.094 C 344.269 55.044,344.155 55.189,344.098 55.418 C 344.041 55.646,343.920 55.833,343.830 55.833 C 343.740 55.833,343.667 56.021,343.667 56.250 C 343.667 56.479,343.600 56.667,343.518 56.667 C 343.436 56.667,343.322 56.854,343.265 57.083 C 343.207 57.313,343.087 57.500,342.997 57.500 C 342.907 57.500,342.833 57.688,342.833 57.917 C 342.833 58.146,342.758 58.333,342.667 58.333 C 342.575 58.333,342.500 58.523,342.500 58.755 C 342.500 58.987,342.387 59.220,342.250 59.273 C 342.096 59.332,342.000 59.586,342.000 59.934 C 342.000 60.246,341.925 60.500,341.833 60.500 C 341.742 60.500,341.667 60.754,341.667 61.066 C 341.667 61.414,341.571 61.668,341.417 61.727 C 341.245 61.793,341.167 62.061,341.167 62.578 C 341.167 62.993,341.092 63.333,341.000 63.333 C 340.908 63.333,340.833 63.711,340.833 64.172 C 340.833 64.764,340.760 65.039,340.583 65.106 C 340.400 65.177,340.333 65.465,340.333 66.184 C 340.333 66.728,340.259 67.167,340.167 67.167 C 340.059 67.167,340.000 69.333,340.000 73.333 C 340.000 77.333,340.059 79.500,340.167 79.500 C 340.262 79.500,340.333 80.002,340.333 80.672 C 340.333 81.560,340.394 81.867,340.583 81.940 C 340.758 82.007,340.833 82.280,340.833 82.851 C 340.833 83.300,340.908 83.667,341.000 83.667 C 341.092 83.667,341.167 83.971,341.167 84.343 C 341.167 84.715,341.234 84.978,341.316 84.927 C 341.498 84.815,341.667 85.218,341.667 85.764 C 341.667 85.985,341.742 86.167,341.833 86.167 C 341.925 86.167,342.000 86.420,342.000 86.730 C 342.000 87.039,342.113 87.386,342.250 87.500 C 342.387 87.614,342.500 87.848,342.500 88.020 C 342.500 88.193,342.575 88.333,342.667 88.333 C 342.758 88.333,342.833 88.440,342.833 88.570 C 342.833 88.848,343.361 89.892,343.542 89.972 C 343.610 90.003,343.667 90.172,343.667 90.347 C 343.667 90.523,343.740 90.667,343.830 90.667 C 343.920 90.667,344.041 90.854,344.098 91.083 C 344.156 91.313,344.270 91.500,344.351 91.500 C 344.433 91.500,344.500 91.574,344.500 91.665 C 344.500 91.755,344.631 91.983,344.792 92.170 C 344.952 92.358,345.046 92.539,345.000 92.573 C 344.954 92.607,345.198 92.909,345.542 93.242 C 345.885 93.576,346.167 93.924,346.167 94.016 C 346.167 94.108,346.354 94.356,346.583 94.569 C 346.813 94.781,347.000 95.040,347.000 95.144 C 347.000 95.248,347.080 95.333,347.179 95.333 C 347.396 95.333,347.833 95.752,347.833 95.960 C 347.833 96.043,348.021 96.211,348.250 96.333 C 348.479 96.456,348.667 96.656,348.667 96.778 C 348.667 96.900,348.752 97.000,348.856 97.000 C 348.960 97.000,349.219 97.188,349.431 97.417 C 349.644 97.646,349.892 97.833,349.984 97.833 C 350.076 97.833,350.398 98.088,350.700 98.399 C 351.003 98.711,351.325 98.966,351.417 98.968 C 351.646 98.971,352.499 99.554,352.500 99.708 C 352.500 99.777,352.642 99.833,352.816 99.833 C 352.989 99.833,353.174 99.946,353.227 100.083 C 353.280 100.221,353.475 100.333,353.661 100.333 C 353.848 100.333,354.000 100.408,354.000 100.500 C 354.000 100.592,354.190 100.667,354.422 100.667 C 354.654 100.667,354.887 100.779,354.940 100.917 C 354.992 101.054,355.178 101.167,355.351 101.167 C 355.525 101.167,355.667 101.242,355.667 101.333 C 355.667 101.425,355.846 101.500,356.066 101.500 C 356.285 101.500,356.508 101.612,356.560 101.750 C 356.613 101.888,356.846 102.000,357.078 102.000 C 357.310 102.000,357.500 102.075,357.500 102.167 C 357.500 102.258,357.762 102.333,358.083 102.333 C 358.491 102.333,358.667 102.409,358.667 102.583 C 358.667 102.757,358.841 102.833,359.240 102.833 C 359.556 102.833,359.860 102.908,359.917 103.000 C 359.973 103.092,360.321 103.167,360.688 103.167 C 361.061 103.167,361.468 103.278,361.607 103.417 C 361.745 103.554,362.147 103.667,362.502 103.667 C 362.857 103.667,363.193 103.742,363.250 103.833 C 363.307 103.925,363.866 104.000,364.492 104.000 C 365.351 104.000,365.655 104.062,365.727 104.250 C 365.807 104.459,366.292 104.500,368.661 104.500 C 370.443 104.500,371.500 104.562,371.500 104.667 C 371.500 104.882,373.713 104.887,373.927 104.673 C 374.019 104.581,375.573 104.504,377.544 104.493 C 380.416 104.478,381.000 104.435,381.000 104.238 C 381.000 104.051,381.300 104.000,382.407 104.000 C 383.181 104.000,383.860 103.925,383.917 103.833 C 383.973 103.742,384.543 103.667,385.182 103.667 C 386.061 103.667,386.367 103.606,386.440 103.417 C 386.507 103.242,386.780 103.167,387.351 103.167 C 387.800 103.167,388.167 103.092,388.167 103.000 C 388.167 102.908,388.496 102.833,388.899 102.833 C 389.396 102.833,389.662 102.753,389.727 102.583 C 389.792 102.413,390.059 102.333,390.568 102.333 C 390.978 102.333,391.360 102.258,391.417 102.167 C 391.473 102.075,391.743 102.000,392.015 102.000 C 392.302 102.000,392.551 101.895,392.606 101.750 C 392.659 101.612,392.882 101.500,393.101 101.500 C 393.321 101.500,393.500 101.430,393.500 101.343 C 393.500 101.257,393.781 101.164,394.125 101.135 C 394.516 101.103,394.734 101.005,394.708 100.875 C 394.685 100.760,394.779 100.667,394.917 100.667 C 395.203 100.667,395.273 99.752,395.000 99.583 C 394.908 99.527,394.833 99.070,394.833 98.568 C 394.833 97.911,394.763 97.629,394.583 97.560 C 394.397 97.489,394.333 97.192,394.333 96.399 C 394.333 95.800,394.260 95.333,394.167 95.333 C 394.074 95.333,394.000 94.889,394.000 94.333 C 394.000 93.556,393.944 93.333,393.750 93.333 C 393.553 93.333,393.500 93.102,393.500 92.250 C 393.500 91.639,393.427 91.167,393.333 91.167 C 393.241 91.167,393.167 90.722,393.167 90.167 C 393.167 89.389,393.111 89.167,392.917 89.167 C 392.722 89.167,392.667 88.944,392.667 88.167 C 392.667 87.617,392.610 87.161,392.542 87.154 C 392.473 87.147,392.246 87.110,392.036 87.071 C 391.801 87.027,391.619 87.096,391.560 87.250 C 391.502 87.403,391.249 87.500,390.909 87.500 C 390.603 87.500,390.307 87.575,390.250 87.667 C 390.193 87.758,389.894 87.833,389.585 87.833 C 389.277 87.833,388.915 87.942,388.783 88.075 C 388.650 88.207,388.195 88.334,387.771 88.356 C 387.347 88.378,387.000 88.457,387.000 88.531 C 387.000 88.606,386.633 88.667,386.184 88.667 C 385.613 88.667,385.340 88.742,385.273 88.917 C 385.199 89.110,384.875 89.167,383.839 89.167 C 383.057 89.167,382.500 89.236,382.500 89.333 C 382.500 89.437,381.554 89.500,379.995 89.500 C 377.922 89.500,377.473 89.543,377.394 89.750 C 377.318 89.946,376.981 90.000,375.833 90.000 C 374.685 90.000,374.348 89.946,374.273 89.750 C 374.196 89.550,373.828 89.500,372.422 89.500 C 371.363 89.500,370.667 89.434,370.667 89.333 C 370.667 89.239,370.194 89.167,369.583 89.167 C 368.806 89.167,368.512 89.108,368.542 88.958 C 368.568 88.828,368.349 88.731,367.958 88.698 C 367.615 88.670,367.333 88.576,367.333 88.490 C 367.333 88.404,367.178 88.333,366.988 88.333 C 366.798 88.333,366.530 88.221,366.393 88.083 C 366.255 87.946,365.961 87.833,365.738 87.833 C 365.515 87.833,365.333 87.758,365.333 87.667 C 365.333 87.575,365.165 87.499,364.958 87.497 C 364.752 87.496,364.407 87.308,364.191 87.080 C 363.975 86.853,363.656 86.667,363.483 86.667 C 363.309 86.667,363.167 86.560,363.167 86.431 C 363.167 86.301,362.947 86.097,362.679 85.979 C 362.410 85.860,362.227 85.704,362.272 85.631 C 362.316 85.559,362.236 85.500,362.093 85.500 C 361.950 85.500,361.833 85.387,361.833 85.250 C 361.833 85.112,361.777 85.019,361.708 85.042 C 361.640 85.065,361.570 85.022,361.553 84.946 C 361.536 84.871,361.330 84.631,361.095 84.412 C 360.859 84.194,360.667 83.969,360.667 83.913 C 360.667 83.856,360.573 83.705,360.458 83.577 C 359.917 82.974,359.810 82.801,359.787 82.496 C 359.774 82.315,359.703 82.167,359.631 82.167 C 359.559 82.167,359.500 81.987,359.500 81.768 C 359.500 81.548,359.387 81.326,359.250 81.273 C 359.093 81.213,359.000 80.958,359.000 80.589 C 359.000 80.265,358.925 80.000,358.833 80.000 C 358.742 80.000,358.667 79.813,358.667 79.583 L 358.667 79.167 378.167 79.167 L 397.667 79.167 397.667 78.768 C 397.667 78.548,397.779 78.326,397.917 78.273 C 398.119 78.195,398.167 77.809,398.167 76.245 C 398.167 75.000,398.226 74.350,398.333 74.417 C 398.442 74.484,398.500 73.391,398.500 71.260 C 398.500 69.198,398.439 68.000,398.333 68.000 C 398.232 68.000,398.167 67.276,398.167 66.161 C 398.167 64.681,398.118 64.304,397.917 64.227 C 397.728 64.155,397.667 63.851,397.667 62.992 C 397.667 62.366,397.592 61.807,397.500 61.750 C 397.408 61.693,397.333 61.312,397.333 60.902 C 397.333 60.393,397.254 60.126,397.083 60.060 C 396.929 60.001,396.833 59.748,396.833 59.399 C 396.833 59.088,396.758 58.833,396.667 58.833 C 396.575 58.833,396.500 58.568,396.500 58.245 C 396.500 57.875,396.407 57.620,396.250 57.560 C 396.096 57.501,396.000 57.248,396.000 56.899 C 396.000 56.588,395.925 56.333,395.833 56.333 C 395.742 56.333,395.667 56.146,395.667 55.917 C 395.667 55.657,395.572 55.500,395.417 55.500 C 395.251 55.500,395.167 55.334,395.167 55.010 C 395.167 54.740,395.092 54.473,395.000 54.417 C 394.908 54.360,394.833 54.166,394.833 53.985 C 394.833 53.804,394.721 53.613,394.583 53.560 C 394.446 53.508,394.333 53.360,394.333 53.232 C 394.333 53.104,394.258 53.000,394.167 53.000 C 394.075 53.000,394.000 52.813,394.000 52.583 C 394.000 52.324,393.906 52.167,393.750 52.167 C 393.613 52.167,393.500 52.028,393.500 51.858 C 393.500 51.688,393.313 51.346,393.083 51.099 C 392.854 50.852,392.667 50.588,392.667 50.512 C 392.667 50.436,392.555 50.281,392.419 50.168 C 392.282 50.055,392.211 49.896,392.262 49.814 C 392.312 49.733,392.249 49.667,392.121 49.667 C 391.994 49.667,391.789 49.479,391.667 49.250 C 391.544 49.021,391.344 48.833,391.222 48.833 C 391.100 48.833,390.999 48.702,390.999 48.542 C 390.998 48.195,389.141 46.333,388.796 46.333 C 388.664 46.333,388.456 46.146,388.333 45.917 C 388.211 45.688,388.028 45.500,387.928 45.500 C 387.828 45.500,387.605 45.313,387.433 45.083 C 387.261 44.854,386.985 44.667,386.820 44.667 C 386.655 44.667,386.473 44.592,386.417 44.500 C 386.360 44.408,386.202 44.333,386.066 44.333 C 385.929 44.333,385.644 44.146,385.431 43.917 C 385.219 43.688,384.885 43.500,384.689 43.500 C 384.484 43.500,384.333 43.394,384.333 43.250 C 384.333 43.094,384.176 43.000,383.917 43.000 C 383.688 43.000,383.500 42.925,383.500 42.833 C 383.500 42.742,383.345 42.667,383.155 42.667 C 382.965 42.667,382.697 42.554,382.560 42.417 C 382.422 42.279,382.127 42.167,381.905 42.167 C 381.682 42.167,381.500 42.092,381.500 42.000 C 381.500 41.908,381.200 41.833,380.833 41.833 C 380.352 41.833,380.167 41.764,380.167 41.583 C 380.167 41.394,379.963 41.333,379.333 41.333 C 378.875 41.333,378.500 41.258,378.500 41.167 C 378.500 41.074,378.056 41.000,377.500 41.000 C 376.722 41.000,376.500 40.944,376.500 40.750 C 376.500 40.533,375.752 40.500,370.768 40.500 C 365.826 40.500,365.022 40.534,364.940 40.750 M262.667 72.500 L 262.667 103.167 272.417 103.167 L 282.167 103.167 282.167 72.500 L 282.167 41.833 272.417 41.833 L 262.667 41.833 262.667 72.500 M372.333 54.000 C 372.333 54.092,372.633 54.167,373.000 54.167 C 373.481 54.167,373.667 54.236,373.667 54.417 C 373.667 54.572,373.824 54.667,374.083 54.667 C 374.313 54.667,374.500 54.742,374.500 54.833 C 374.500 54.925,374.688 55.000,374.917 55.000 C 375.146 55.000,375.333 55.080,375.333 55.179 C 375.333 55.366,375.741 55.833,375.905 55.833 C 376.071 55.833,377.333 57.159,377.333 57.333 C 377.333 57.425,377.446 57.500,377.583 57.500 C 377.721 57.500,377.833 57.612,377.833 57.750 C 377.833 57.887,377.908 58.000,378.000 58.000 C 378.092 58.000,378.167 58.152,378.167 58.339 C 378.167 58.525,378.279 58.720,378.417 58.773 C 378.554 58.826,378.667 59.042,378.667 59.254 C 378.667 59.466,378.739 59.664,378.828 59.694 C 378.917 59.725,379.008 59.994,379.030 60.292 C 379.053 60.601,379.163 60.833,379.285 60.833 C 379.425 60.833,379.500 61.067,379.500 61.500 C 379.500 61.867,379.575 62.167,379.667 62.167 C 379.767 62.167,379.833 62.833,379.833 63.833 L 379.833 65.500 369.250 65.500 L 358.667 65.500 358.667 64.843 C 358.667 64.482,358.742 64.140,358.833 64.083 C 358.925 64.027,359.000 63.645,359.000 63.235 C 359.000 62.726,359.079 62.459,359.250 62.394 C 359.391 62.340,359.500 62.091,359.500 61.825 C 359.500 61.566,359.575 61.307,359.667 61.250 C 359.758 61.193,359.833 60.999,359.833 60.818 C 359.833 60.637,359.946 60.446,360.083 60.394 C 360.221 60.341,360.333 60.156,360.333 59.982 C 360.333 59.809,360.408 59.667,360.500 59.667 C 360.592 59.667,360.667 59.513,360.667 59.325 C 360.667 59.138,360.854 58.810,361.083 58.598 C 361.313 58.386,361.500 58.161,361.500 58.099 C 361.500 57.991,361.664 57.771,362.125 57.256 C 362.240 57.128,362.333 56.943,362.333 56.845 C 362.333 56.747,362.414 56.667,362.512 56.667 C 362.743 56.667,363.167 56.243,363.167 56.012 C 363.167 55.914,363.306 55.833,363.476 55.833 C 363.646 55.833,363.987 55.646,364.234 55.417 C 364.482 55.188,364.788 55.000,364.915 55.000 C 365.043 55.000,365.193 54.925,365.250 54.833 C 365.307 54.742,365.501 54.667,365.682 54.667 C 365.863 54.667,366.054 54.554,366.106 54.417 C 366.166 54.262,366.419 54.167,366.768 54.167 C 367.079 54.167,367.333 54.092,367.333 54.000 C 367.333 53.896,368.278 53.833,369.833 53.833 C 371.389 53.833,372.333 53.896,372.333 54.000 M36.053 56.065 C 36.102 56.192,36.429 56.338,36.779 56.389 C 38.083 56.578,38.500 56.711,38.500 56.936 C 38.500 57.063,38.612 57.167,38.750 57.167 C 38.887 57.167,39.000 57.246,39.000 57.343 C 39.000 57.440,39.066 57.479,39.146 57.430 C 39.226 57.380,39.477 57.507,39.703 57.711 C 40.378 58.320,41.063 58.833,41.203 58.833 C 41.275 58.833,41.333 58.917,41.333 59.018 C 41.333 59.200,41.640 59.580,42.542 60.514 C 42.794 60.775,43.000 61.141,43.000 61.328 C 43.000 61.518,43.110 61.667,43.250 61.667 C 43.406 61.667,43.500 61.824,43.500 62.083 C 43.500 62.313,43.575 62.500,43.667 62.500 C 43.758 62.500,43.833 62.688,43.833 62.917 C 43.833 63.176,43.928 63.333,44.083 63.333 C 44.298 63.333,44.394 63.716,44.319 64.273 C 44.311 64.332,44.384 64.428,44.480 64.488 C 44.577 64.548,44.675 64.846,44.698 65.151 C 44.722 65.456,44.836 65.742,44.954 65.787 C 45.086 65.838,45.167 66.176,45.167 66.684 C 45.167 67.133,45.242 67.500,45.333 67.500 C 45.436 67.500,45.500 68.306,45.500 69.583 C 45.500 71.324,45.541 71.667,45.750 71.667 C 45.903 71.667,46.000 71.822,46.000 72.066 C 46.000 72.285,45.887 72.508,45.750 72.560 C 45.546 72.639,45.500 73.050,45.500 74.818 C 45.500 76.080,45.431 77.023,45.333 77.083 C 45.242 77.140,45.167 77.557,45.167 78.010 C 45.167 78.631,45.105 78.833,44.917 78.833 C 44.743 78.833,44.667 79.008,44.667 79.407 C 44.667 79.722,44.592 80.027,44.500 80.083 C 44.408 80.140,44.333 80.409,44.333 80.682 C 44.333 80.968,44.228 81.218,44.083 81.273 C 43.946 81.326,43.833 81.548,43.833 81.768 C 43.833 81.987,43.754 82.167,43.657 82.167 C 43.560 82.167,43.525 82.239,43.580 82.327 C 43.634 82.416,43.526 82.641,43.339 82.827 C 43.153 83.014,43.000 83.321,43.000 83.510 C 43.000 83.699,42.925 83.807,42.833 83.750 C 42.742 83.693,42.667 83.764,42.667 83.907 C 42.667 84.050,42.590 84.167,42.497 84.167 C 42.404 84.167,42.203 84.429,42.050 84.750 C 41.897 85.071,41.673 85.333,41.552 85.333 C 41.432 85.333,41.333 85.414,41.333 85.512 C 41.333 85.739,40.911 86.167,40.687 86.167 C 40.593 86.167,40.457 86.261,40.383 86.375 C 40.310 86.490,40.044 86.690,39.792 86.820 C 39.540 86.950,39.333 87.156,39.333 87.278 C 39.333 87.402,39.155 87.500,38.931 87.500 C 38.709 87.500,38.503 87.574,38.472 87.665 C 38.442 87.756,38.202 87.848,37.939 87.870 C 37.676 87.892,37.424 88.005,37.379 88.121 C 37.334 88.238,37.048 88.333,36.742 88.333 C 36.436 88.333,36.140 88.408,36.083 88.500 C 36.027 88.592,35.347 88.667,34.573 88.667 C 33.566 88.667,33.163 88.726,33.154 88.875 C 33.143 89.042,33.124 89.042,33.056 88.875 C 33.000 88.735,32.569 88.667,31.736 88.667 C 31.023 88.667,30.500 88.596,30.500 88.500 C 30.500 88.408,30.200 88.333,29.833 88.333 C 29.395 88.333,29.181 88.263,29.208 88.129 C 29.231 88.017,29.081 87.899,28.875 87.867 C 28.669 87.836,28.500 87.740,28.500 87.655 C 28.500 87.570,28.321 87.500,28.101 87.500 C 27.882 87.500,27.659 87.388,27.606 87.250 C 27.554 87.112,27.391 87.000,27.245 87.000 C 27.100 87.000,27.027 86.925,27.083 86.833 C 27.142 86.739,27.002 86.667,26.760 86.667 C 26.525 86.667,26.333 86.586,26.333 86.488 C 26.333 86.257,25.909 85.833,25.679 85.833 C 25.580 85.833,25.500 85.753,25.500 85.655 C 25.500 85.454,25.087 85.000,24.905 85.000 C 24.733 85.000,24.345 84.453,24.339 84.200 C 24.336 84.081,24.146 83.810,23.917 83.598 C 23.688 83.386,23.500 83.052,23.500 82.856 C 23.500 82.651,23.394 82.500,23.250 82.500 C 23.075 82.500,23.000 82.324,23.000 81.917 C 23.000 81.596,22.930 81.333,22.843 81.333 C 22.757 81.333,22.664 81.052,22.635 80.708 C 22.603 80.317,22.505 80.099,22.375 80.125 C 22.221 80.156,22.167 79.778,22.167 78.667 C 22.167 77.778,22.099 77.167,22.000 77.167 C 21.893 77.167,21.833 75.500,21.833 72.500 C 21.833 69.500,21.893 67.833,22.000 67.833 C 22.099 67.833,22.167 67.200,22.167 66.268 C 22.167 65.030,22.219 64.682,22.417 64.606 C 22.574 64.546,22.667 64.291,22.667 63.922 C 22.667 63.598,22.742 63.333,22.833 63.333 C 22.925 63.333,23.000 63.146,23.000 62.917 C 23.000 62.657,23.094 62.500,23.250 62.500 C 23.406 62.500,23.500 62.343,23.500 62.083 C 23.500 61.854,23.575 61.667,23.667 61.667 C 23.758 61.667,23.833 61.479,23.833 61.250 C 23.833 61.008,23.929 60.833,24.063 60.833 C 24.189 60.833,24.403 60.603,24.539 60.322 C 24.675 60.041,24.854 59.829,24.935 59.852 C 25.017 59.874,25.110 59.754,25.143 59.583 C 25.212 59.223,25.565 58.833,25.821 58.833 C 25.920 58.833,26.000 58.721,26.000 58.583 C 26.000 58.446,26.131 58.331,26.292 58.328 C 26.652 58.321,27.167 57.946,27.167 57.690 C 27.167 57.585,27.279 57.500,27.417 57.500 C 27.554 57.500,27.667 57.425,27.667 57.333 C 27.667 57.242,27.819 57.167,28.005 57.167 C 28.191 57.167,28.387 57.054,28.440 56.917 C 28.492 56.779,28.715 56.667,28.934 56.667 C 29.154 56.667,29.333 56.592,29.333 56.500 C 29.333 56.408,29.596 56.333,29.917 56.333 C 30.324 56.333,30.500 56.258,30.500 56.083 C 30.500 55.726,35.916 55.707,36.053 56.065 " stroke="none" fill="#9c9c9c" fill-rule="evenodd"></path><path id="path2" d="M96.727 40.750 C 96.660 40.925,96.388 41.000,95.825 41.000 C 95.382 41.000,94.973 41.075,94.917 41.167 C 94.860 41.258,94.481 41.333,94.073 41.333 C 93.527 41.333,93.333 41.399,93.333 41.583 C 93.333 41.758,93.157 41.833,92.750 41.833 C 92.429 41.833,92.167 41.908,92.167 42.000 C 92.167 42.092,91.867 42.167,91.500 42.167 C 91.019 42.167,90.833 42.236,90.833 42.417 C 90.833 42.572,90.676 42.667,90.417 42.667 C 90.188 42.667,90.000 42.742,90.000 42.833 C 90.000 42.925,89.737 43.000,89.417 43.000 C 89.009 43.000,88.833 43.075,88.833 43.250 C 88.833 43.403,88.677 43.500,88.431 43.500 C 88.209 43.500,88.003 43.568,87.972 43.651 C 87.942 43.735,87.768 43.828,87.586 43.860 C 87.403 43.891,87.095 44.085,86.900 44.292 C 86.705 44.498,86.466 44.667,86.369 44.667 C 86.097 44.667,85.119 45.217,84.816 45.542 C 84.667 45.702,84.471 45.833,84.381 45.833 C 84.292 45.833,84.001 46.021,83.734 46.250 C 83.468 46.479,83.194 46.666,83.125 46.666 C 83.056 46.667,83.000 46.779,83.000 46.917 C 83.000 47.122,82.610 47.273,82.458 47.126 C 82.377 47.048,78.000 51.475,78.000 51.635 C 78.000 51.725,77.887 51.841,77.750 51.894 C 77.612 51.946,77.500 52.104,77.500 52.245 C 77.500 52.385,77.425 52.500,77.333 52.500 C 77.242 52.500,77.167 52.612,77.167 52.750 C 77.167 52.887,77.081 53.000,76.977 53.000 C 76.746 53.000,76.346 53.501,76.339 53.800 C 76.336 53.919,76.146 54.190,75.917 54.402 C 75.688 54.614,75.500 54.948,75.500 55.144 C 75.500 55.349,75.394 55.500,75.250 55.500 C 75.112 55.500,75.000 55.631,75.000 55.792 C 75.000 55.952,74.809 56.305,74.575 56.577 L 74.151 57.070 74.509 57.203 C 74.706 57.276,81.029 57.316,88.559 57.293 L 102.250 57.250 102.293 48.875 L 102.336 40.500 99.580 40.500 C 97.283 40.500,96.807 40.542,96.727 40.750 M102.667 40.651 C 102.667 40.735,106.360 44.482,110.875 48.979 C 115.390 53.475,122.383 60.457,126.417 64.494 C 130.450 68.530,133.849 71.833,133.970 71.833 C 134.279 71.833,134.186 66.478,133.875 66.375 C 133.739 66.330,133.667 65.958,133.667 65.310 C 133.667 64.688,133.604 64.352,133.500 64.417 C 133.399 64.479,133.333 64.250,133.333 63.838 C 133.333 63.386,133.249 63.124,133.083 63.060 C 132.920 62.998,132.833 62.738,132.833 62.316 C 132.833 61.959,132.758 61.667,132.667 61.667 C 132.575 61.667,132.500 61.439,132.500 61.161 C 132.500 60.866,132.396 60.616,132.250 60.560 C 132.112 60.508,132.000 60.285,132.000 60.066 C 132.000 59.846,131.925 59.667,131.833 59.667 C 131.742 59.667,131.681 59.610,131.698 59.542 C 131.764 59.282,131.467 58.333,131.320 58.333 C 131.236 58.333,131.167 58.217,131.167 58.075 C 131.167 57.933,130.904 57.407,130.583 56.905 C 130.262 56.404,130.000 55.882,130.000 55.747 C 130.000 55.611,129.887 55.500,129.750 55.500 C 129.606 55.500,129.500 55.349,129.500 55.144 C 129.500 54.948,129.313 54.614,129.083 54.402 C 128.854 54.190,128.664 53.919,128.661 53.800 C 128.654 53.501,128.254 53.000,128.023 53.000 C 127.919 53.000,127.833 52.920,127.833 52.821 C 127.833 52.723,127.740 52.538,127.625 52.411 C 127.181 51.915,127.000 51.677,127.000 51.587 C 127.000 51.470,122.606 47.068,122.545 47.125 C 122.415 47.246,122.000 47.142,122.000 46.988 C 122.000 46.746,121.684 46.466,121.083 46.174 C 120.808 46.040,120.433 45.769,120.250 45.572 C 120.067 45.375,119.748 45.161,119.542 45.096 C 119.335 45.031,119.167 44.908,119.167 44.822 C 119.167 44.737,119.007 44.667,118.811 44.667 C 118.615 44.667,118.295 44.498,118.100 44.292 C 117.905 44.085,117.597 43.891,117.414 43.860 C 117.232 43.828,117.058 43.735,117.028 43.651 C 116.997 43.568,116.791 43.500,116.569 43.500 C 116.323 43.500,116.167 43.403,116.167 43.250 C 116.167 43.075,115.991 43.000,115.583 43.000 C 115.263 43.000,115.000 42.925,115.000 42.833 C 115.000 42.742,114.813 42.667,114.583 42.667 C 114.324 42.667,114.167 42.572,114.167 42.417 C 114.167 42.236,113.981 42.167,113.500 42.167 C 113.133 42.167,112.833 42.092,112.833 42.000 C 112.833 41.908,112.571 41.833,112.250 41.833 C 111.843 41.833,111.667 41.758,111.667 41.583 C 111.667 41.403,111.483 41.333,111.010 41.333 C 110.649 41.333,110.307 41.258,110.250 41.167 C 110.193 41.075,109.737 41.000,109.235 41.000 C 108.578 41.000,108.296 40.930,108.227 40.750 C 108.117 40.463,102.667 40.367,102.667 40.651 M118.195 87.875 C 109.656 96.423,102.669 103.473,102.668 103.542 C 102.665 103.808,108.124 103.686,108.227 103.417 C 108.296 103.237,108.578 103.167,109.235 103.167 C 109.737 103.167,110.193 103.092,110.250 103.000 C 110.307 102.908,110.649 102.833,111.010 102.833 C 111.483 102.833,111.667 102.763,111.667 102.583 C 111.667 102.409,111.843 102.333,112.250 102.333 C 112.571 102.333,112.833 102.258,112.833 102.167 C 112.833 102.075,113.133 102.000,113.500 102.000 C 113.981 102.000,114.167 101.931,114.167 101.750 C 114.167 101.594,114.324 101.500,114.583 101.500 C 114.813 101.500,115.000 101.425,115.000 101.333 C 115.000 101.242,115.263 101.167,115.583 101.167 C 115.991 101.167,116.167 101.091,116.167 100.917 C 116.167 100.763,116.323 100.667,116.569 100.667 C 116.791 100.667,116.997 100.599,117.028 100.515 C 117.058 100.432,117.232 100.338,117.414 100.307 C 117.597 100.276,117.905 100.081,118.100 99.875 C 118.295 99.669,118.615 99.500,118.811 99.500 C 119.007 99.500,119.167 99.430,119.167 99.345 C 119.167 99.259,119.335 99.136,119.542 99.071 C 119.748 99.006,120.067 98.791,120.250 98.594 C 120.433 98.397,120.808 98.127,121.083 97.993 C 121.684 97.701,122.000 97.420,122.000 97.179 C 122.000 97.025,122.415 96.921,122.545 97.042 C 122.607 97.100,127.000 92.695,127.000 92.575 C 127.000 92.520,127.094 92.372,127.208 92.244 C 127.703 91.692,127.833 91.504,127.833 91.340 C 127.833 91.245,127.919 91.167,128.023 91.167 C 128.254 91.167,128.654 90.665,128.661 90.367 C 128.664 90.248,128.854 89.977,129.083 89.765 C 129.313 89.552,129.500 89.218,129.500 89.023 C 129.500 88.817,129.606 88.667,129.750 88.667 C 129.887 88.667,130.000 88.556,130.000 88.420 C 130.000 88.284,130.262 87.763,130.583 87.261 C 130.904 86.760,131.167 86.233,131.167 86.091 C 131.167 85.949,131.236 85.833,131.320 85.833 C 131.467 85.833,131.764 84.884,131.698 84.625 C 131.681 84.556,131.742 84.500,131.833 84.500 C 131.925 84.500,132.000 84.321,132.000 84.101 C 132.000 83.882,132.095 83.666,132.212 83.621 C 132.329 83.576,132.442 83.324,132.463 83.061 C 132.485 82.798,132.577 82.558,132.668 82.528 C 132.759 82.497,132.833 82.186,132.833 81.837 C 132.833 81.427,132.922 81.168,133.083 81.106 C 133.249 81.043,133.333 80.781,133.333 80.329 C 133.333 79.917,133.399 79.688,133.500 79.750 C 133.604 79.814,133.667 79.479,133.667 78.857 C 133.667 78.208,133.739 77.837,133.875 77.792 C 134.199 77.684,134.278 72.333,133.955 72.333 C 133.826 72.333,126.734 79.327,118.195 87.875 M73.833 85.898 C 73.833 86.336,74.056 86.817,74.625 87.611 C 74.831 87.899,75.000 88.254,75.000 88.401 C 75.000 88.547,75.112 88.667,75.250 88.667 C 75.394 88.667,75.500 88.817,75.500 89.023 C 75.500 89.218,75.688 89.552,75.917 89.765 C 76.146 89.977,76.336 90.248,76.339 90.367 C 76.346 90.665,76.746 91.167,76.977 91.167 C 77.081 91.167,77.167 91.279,77.167 91.417 C 77.167 91.554,77.242 91.667,77.333 91.667 C 77.425 91.667,77.500 91.782,77.500 91.922 C 77.500 92.062,77.612 92.220,77.750 92.273 C 77.887 92.326,78.000 92.442,78.000 92.531 C 78.000 92.692,82.257 96.998,82.417 96.999 C 82.463 97.000,82.612 97.000,82.750 97.000 C 82.887 97.000,83.000 97.112,83.000 97.250 C 83.000 97.388,83.056 97.500,83.125 97.500 C 83.194 97.500,83.468 97.688,83.734 97.917 C 84.001 98.146,84.292 98.333,84.381 98.333 C 84.471 98.333,84.667 98.465,84.816 98.625 C 85.119 98.949,86.097 99.500,86.369 99.500 C 86.466 99.500,86.705 99.669,86.900 99.875 C 87.095 100.081,87.403 100.276,87.586 100.307 C 87.768 100.338,87.942 100.432,87.972 100.515 C 88.003 100.599,88.209 100.667,88.431 100.667 C 88.677 100.667,88.833 100.763,88.833 100.917 C 88.833 101.091,89.009 101.167,89.417 101.167 C 89.737 101.167,90.000 101.242,90.000 101.333 C 90.000 101.425,90.188 101.500,90.417 101.500 C 90.676 101.500,90.833 101.594,90.833 101.750 C 90.833 101.931,91.019 102.000,91.500 102.000 C 91.867 102.000,92.167 102.075,92.167 102.167 C 92.167 102.258,92.429 102.333,92.750 102.333 C 93.157 102.333,93.333 102.409,93.333 102.583 C 93.333 102.768,93.527 102.833,94.073 102.833 C 94.481 102.833,94.860 102.908,94.917 103.000 C 94.973 103.092,95.382 103.167,95.825 103.167 C 96.388 103.167,96.660 103.242,96.727 103.417 C 96.807 103.625,97.283 103.667,99.578 103.667 L 102.333 103.667 102.333 94.847 C 102.333 89.996,102.288 85.909,102.232 85.764 C 102.141 85.526,100.730 85.500,87.982 85.500 L 73.833 85.500 73.833 85.898 M18.881 99.917 C 18.882 100.375,18.915 100.543,18.953 100.289 C 18.991 100.036,18.990 99.661,18.951 99.456 C 18.911 99.251,18.880 99.458,18.881 99.917 " stroke="none" fill="#cc6404" fill-rule="evenodd"></path><path id="path3" d="M102.500 49.301 C 102.500 55.793,102.458 57.327,102.276 57.479 C 102.116 57.612,98.126 57.677,88.317 57.708 L 74.583 57.752 88.438 57.793 C 100.135 57.827,102.323 57.797,102.486 57.600 C 102.627 57.431,102.677 55.247,102.670 49.548 C 102.665 45.247,102.707 41.682,102.764 41.625 C 102.821 41.568,109.277 47.911,117.112 55.719 C 124.947 63.528,131.424 69.941,131.506 69.970 C 131.588 70.000,125.205 63.587,117.322 55.720 C 109.438 47.853,102.878 41.392,102.744 41.363 C 102.532 41.316,102.500 42.371,102.500 49.301 M132.833 71.272 C 132.833 71.357,132.982 71.553,133.164 71.709 C 133.509 72.005,103.205 102.813,102.810 102.569 C 102.725 102.517,102.665 98.843,102.670 94.042 C 102.677 87.320,102.634 85.563,102.461 85.390 C 102.286 85.215,99.467 85.164,88.138 85.128 C 80.379 85.103,74.118 85.138,74.224 85.206 C 74.330 85.273,80.690 85.329,88.357 85.331 C 100.914 85.333,102.308 85.360,102.399 85.597 C 102.454 85.742,102.500 89.717,102.500 94.430 C 102.500 99.144,102.558 103.000,102.629 103.000 C 102.701 103.000,109.694 96.063,118.169 87.583 C 127.747 78.002,133.707 72.159,133.915 72.147 C 134.227 72.129,134.228 72.122,133.935 72.047 C 133.762 72.003,133.443 71.776,133.227 71.542 C 133.010 71.309,132.833 71.187,132.833 71.272 " stroke="none" fill="#f3dbc2" fill-rule="evenodd"></path><path id="path4" d="M102.293 48.875 L 102.250 57.250 88.208 57.250 C 77.086 57.250,74.167 57.293,74.167 57.458 C 74.167 57.756,102.002 57.764,102.300 57.467 C 102.450 57.317,102.500 55.271,102.500 49.288 C 102.500 42.386,102.533 41.316,102.743 41.363 C 102.876 41.392,109.883 48.298,118.313 56.708 C 127.828 66.201,133.756 71.996,133.945 71.989 C 134.221 71.980,134.218 71.965,133.917 71.836 C 133.733 71.757,130.321 68.421,126.333 64.423 C 122.346 60.426,115.390 53.475,110.875 48.979 C 106.360 44.482,102.667 40.735,102.667 40.651 C 102.667 40.568,102.592 40.500,102.502 40.500 C 102.395 40.500,102.321 43.484,102.293 48.875 M118.169 87.583 C 109.694 96.063,102.701 103.000,102.629 103.000 C 102.558 103.000,102.499 99.119,102.497 94.375 C 102.496 89.631,102.436 85.658,102.365 85.545 C 102.218 85.314,73.833 85.145,73.833 85.375 C 73.833 85.444,80.200 85.500,87.982 85.500 C 100.730 85.500,102.141 85.526,102.232 85.764 C 102.288 85.909,102.333 89.996,102.333 94.847 C 102.333 100.616,102.391 103.667,102.500 103.667 C 102.592 103.667,102.667 103.610,102.668 103.542 C 102.671 103.333,133.593 72.448,133.933 72.314 C 134.236 72.196,134.235 72.190,133.915 72.178 C 133.685 72.170,128.739 77.010,118.169 87.583 " stroke="none" fill="#ecbc94" fill-rule="evenodd"></path></g></svg>